PathFileType	4	(X/Y/Z)	OpenSim_Sub02_EMGStiffKnee_Gyro.trc
DataRate	CameraRate	NumFrames	NumMarkers	Units	OrigDataRate	OrigDataStartFrame	OrigNumFrames
100	100	16	8	m	100	5918	7890
Frame#	Time	torso_imu_offset_imu	pelvis_imu_offset_imu	tibia_r_imu_offset_imu	femur_r_imu_offset_imu	tibia_l_imu_offset_imu	femur_l_imu_offset_imu	toes_r_imu_offset_imu	toes_l_imu_offset_imu
				X1	Y1	Z1	X2	Y2	Z2	X3	Y3	Z3	X4	Y4	Z4	X5	Y5	Z5	X6	Y6	Z6	X7	Y7	Z7	X8		Y8	Z8	

5918	59.17000000	0.65675827	-0.23902273	-0.20352118	0.75034547	0.02586662	-0.07550833	0.25272329	-0.23336182	-2.23446953	0.01429092	0.23155612	-0.22195093	-0.82339159	1.32845605	2.41855936	-1.02678850	0.36061549	-1.09546515	0.17532797	-0.39543741	-0.23358829	1.01488444	-4.77278619	1.56982281
5919	59.18000000	0.89655223	-0.21189368	-0.08599919	0.80855690	0.08059731	0.11648754	-1.08397073	-0.40366249	-1.51491763	-1.06899260	-0.66542768	-1.34324438	-0.30935794	1.28871201	2.29044129	-1.07443967	0.46093558	-1.14646522	0.57990272	-0.30922679	-0.17644589	1.24827722	-3.90738469	1.77157552
5920	59.19000000	1.03394391	-0.14166237	0.06322258	0.83483720	0.17720685	0.14100954	-0.96268082	-0.91534137	-0.90218177	-2.15191228	-1.04753791	-2.15268794	-0.57679588	1.19051673	2.17880512	-1.06471789	0.43514503	-1.21841832	-0.08050736	-0.28611644	-0.17912606	1.94771656	-3.14274490	1.80851750
5921	59.20000000	1.05955985	-0.06903510	0.22802380	0.77618560	0.28211150	0.03149551	0.00045944	-0.69097517	-0.69433833	-2.51579544	-0.58689140	-2.56962242	-1.20413264	0.76480216	2.12573050	-0.91341772	0.23924225	-1.28325512	-0.01669149	-0.26603700	-0.20524655	1.74142362	-1.59632988	1.35443525
5922	59.21000000	1.01729523	0.00672862	0.38925647	0.68213608	0.32730225	-0.13867736	-0.34846041	-0.26885608	-0.85938506	-1.90603976	-0.02054292	-2.62158119	-1.54769464	0.28183521	2.01423688	-0.72254460	-0.02480259	-1.36646558	0.22008349	-0.20092695	-0.15584820	-0.07910651	0.43485533	0.76783218
5923	59.22000000	0.94669977	0.05664937	0.51545962	0.58494985	0.28372879	-0.28176642	-0.78746147	-0.25883595	-1.04185478	-0.82687578	0.14034412	-2.31008305	-1.16871031	0.08467200	1.64667922	-0.59157842	-0.22558040	-1.45717811	-0.05989293	-0.28340825	-0.03709058	-0.54503332	1.68315619	0.59385258
5924	59.23000000	0.86327928	0.07936421	0.61905084	0.45713948	0.16417416	-0.39333699	-0.38360725	-0.05492245	-1.11319690	-0.09607559	-0.02533052	-1.50003912	-0.11991882	0.07957684	0.90195283	-0.49756444	-0.25225446	-1.46073658	-0.15387254	-0.42910338	0.03847604	-0.46508658	2.28187257	0.76116794
5925	59.24000000	0.79057228	0.10182780	0.67299669	0.34443409	0.02984394	-0.44068022	0.01485419	-0.10185475	-1.13024940	0.05645145	-0.18507825	-0.53364671	1.03522728	0.09008927	0.00327160	-0.35876019	-0.17043848	-1.34066426	-0.12674300	-0.54575967	0.06208082	0.09430716	2.49800461	0.98074190
5926	59.25000000	0.71912942	0.11300719	0.62948127	0.27935511	-0.07321981	-0.43592250	0.08517451	-0.21111795	-0.91315355	0.16874553	-0.04173438	-0.04938564	2.02323881	0.01901130	-0.69875750	-0.18476600	-0.15956422	-1.12340004	-0.13691445	-0.59414883	0.09864559	0.23928874	2.97792058	1.04873379
5927	59.26000000	0.65882377	0.10395972	0.51775266	0.27457186	-0.16873821	-0.41029385	-0.04194431	-0.25850613	-0.66456133	0.71901699	0.09290676	-0.13019432	2.50074079	-0.19270471	-0.96183723	-0.01778541	-0.26284092	-0.91659323	-0.18003923	-0.69401241	0.15844011	0.18605597	3.36628550	0.97897991
5928	59.27000000	0.62953862	0.06715518	0.39499172	0.30545372	-0.26779936	-0.35807635	-0.07683666	-0.13703409	-0.59131575	1.15041489	-0.01327859	-0.44194176	2.80094391	-0.53317774	-0.97100522	0.12405773	-0.35895542	-0.82029262	-0.21899042	-0.72950590	0.21167157	-0.03936276	3.70315892	0.81424863
5929	59.28000000	0.63356784	0.01821809	0.28627658	0.39147615	-0.33551635	-0.29372397	-0.17596954	-0.05675705	-0.68107639	1.03307452	-0.18074933	-0.71161701	2.95494806	-0.85378423	-1.08504666	0.22067347	-0.40508955	-0.82425770	-0.24333808	-0.72356722	0.23769648	-0.00015490	3.86454169	0.55902078
5930	59.29000000	0.65369693	-0.03034896	0.20821304	0.52681347	-0.35587071	-0.21023392	-0.26278454	-0.05141781	-0.78106522	0.64666847	-0.31096159	-0.90359469	2.87185224	-1.06890531	-1.42815679	0.26707896	-0.42733283	-0.90477501	-0.17997346	-0.74083271	0.25578045	0.19706998	3.94206230	0.24652214
5931	59.30000000	0.68107592	-0.06383695	0.15733967	0.66023003	-0.33821713	-0.11149409	-0.18878124	-0.04157817	-0.79812326	0.30798095	-0.37969684	-1.01975463	2.54024716	-1.17172517	-1.87228211	0.24697399	-0.42032278	-1.00801430	-0.23951512	-0.72360167	0.24893424	0.32217892	4.05990875	-0.09379277
5932	59.31000000	0.71785955	-0.06767029	0.12410746	0.74923523	-0.28116866	-0.01852866	-0.11558921	-0.07638135	-0.73785347	0.02180160	-0.37090213	-1.12387662	1.84633604	-1.20520988	-2.25077413	0.13701822	-0.38444029	-1.08188207	-0.20913402	-0.68100870	0.22302393	0.38059515	4.13362143	-0.46249500
5933	59.32000000	0.74199880	-0.05570857	0.12840922	0.79992606	-0.20769092	0.02915023	-0.05141074	-0.10707306	-0.64804622	-0.16521693	-0.28640207	-1.20505054	0.90380714	-1.26180990	-2.52606439	-0.02671167	-0.35332339	-1.08478450	-0.18917821	-0.68696578	0.18558411	0.43462928	4.15406418	-0.85713970
